<?xml version="1.0" encoding="iso-8859-1"?>
<!-- Generator: Adobe Illustrator 19.0.0, SVG Export Plug-In . SVG Version: 6.00 Build 0)  -->
<svg version="1.1" id="Layer_1" xmlns="http://www.w3.org/2000/svg" xmlns:xlink="http://www.w3.org/1999/xlink" x="0px" y="0px"
	 viewBox="0 0 512 512" style="enable-background:new 0 0 512 512;" xml:space="preserve">
<g>
	<g>
		<g>
			<path d="M273.677,377.263c-8.794,0-17.292-2.6-24.576-7.516c-3.698-2.499-8.727-1.524-11.223,2.177
				c-2.499,3.7-1.524,8.726,2.177,11.224c9.966,6.727,21.592,10.283,33.622,10.283h18.971c4.466,0,8.084-3.62,8.084-8.084
				c0-4.465-3.618-8.084-8.084-8.084H273.677z"/>
			<path d="M8.084,317.979h29.793c11.784,0,22.379,6.548,27.65,17.089c8.027,16.054,24.163,26.027,42.111,26.027h124.26
				c17.948,0,34.084-9.973,42.111-26.027c5.27-10.541,15.865-17.089,27.65-17.089h110.276c4.466,0,8.084-3.62,8.084-8.084
				c0-4.465-3.619-8.084-8.084-8.084H301.66c-17.948,0-34.084,9.973-42.111,26.027c-5.27,10.541-15.865,17.089-27.65,17.089h-124.26
				c-11.784,0-22.379-6.548-27.65-17.089c-8.027-16.054-24.163-26.027-42.111-26.027H8.084c-4.466,0-8.084,3.62-8.084,8.084
				C0,314.359,3.619,317.979,8.084,317.979z"/>
			<path d="M277.558,278.097h75.453c4.466,0,8.084-3.62,8.084-8.084s-3.618-8.084-8.084-8.084h-75.453
				c-4.466,0-8.084,3.62-8.084,8.084S273.092,278.097,277.558,278.097z"/>
			<path d="M450.021,177.853c4.466,0,8.084-3.62,8.084-8.084s-3.619-8.084-8.084-8.084h-64.674c-4.466,0-8.084,3.62-8.084,8.084
				s3.618,8.084,8.084,8.084H450.021z"/>
			<path d="M501.221,223.663c0-4.465-3.619-8.084-8.084-8.084H309.895c-4.466,0-8.084,3.62-8.084,8.084
				c0,4.465,3.618,8.084,8.084,8.084h183.242C497.603,231.747,501.221,228.128,501.221,223.663z"/>
			<path d="M439.242,21.558c10.401,0,18.863,8.463,18.863,18.863c0,4.465,3.618,8.084,8.084,8.084c4.466,0,8.084-3.62,8.084-8.084
				c0-10.401,8.463-18.863,18.863-18.863c4.466,0,8.084-3.62,8.084-8.084s-3.619-8.084-8.084-8.084
				c-10.823,0-20.517,4.935-26.947,12.671c-6.431-7.736-16.124-12.671-26.947-12.671c-4.466,0-8.084,3.62-8.084,8.084
				S434.776,21.558,439.242,21.558z"/>
			<path d="M285.642,180.547c0-4.465-3.618-8.084-8.084-8.084h-43.116c-4.466,0-8.084,3.62-8.084,8.084
				c0,4.465,3.618,8.084,8.084,8.084h43.116C282.024,188.632,285.642,185.012,285.642,180.547z"/>
			<path d="M8.084,134.737h97.01c4.466,0,8.084-3.62,8.084-8.084c0-4.465-3.618-8.084-8.084-8.084H27.888
				c3.659-15.432,17.556-26.947,34.091-26.947h140.126c16.535,0,30.431,11.515,34.091,26.947H138.15
				c-4.466,0-8.084,3.62-8.084,8.084c0,4.465,3.618,8.084,8.084,8.084h365.765c4.466,0,8.084-3.62,8.084-8.084
				c0-4.465-3.618-8.084-8.084-8.084H380.869c1.187-6.19,1.784-12.503,1.784-18.863C382.653,44.727,337.925,0,282.947,0
				c-36.861,0-70.57,20.208-87.97,52.738c-2.106,3.936-0.622,8.836,3.315,10.942c3.939,2.107,8.836,0.622,10.942-3.316
				c14.584-27.261,42.829-44.196,73.714-44.196c46.062,0,83.537,37.475,83.537,83.537c0,6.384-0.718,12.707-2.136,18.863h-28.031
				c2.123-6.01,3.22-12.374,3.22-18.863c0-31.204-25.387-56.589-56.589-56.589c-17.162,0-33.204,7.66-44.01,21.015
				c-2.808,3.471-2.271,8.561,1.199,11.37c3.472,2.808,8.561,2.272,11.37-1.199c7.723-9.544,19.183-15.017,31.442-15.017
				c22.289,0,40.421,18.132,40.421,40.421c0,6.633-1.601,13.078-4.66,18.863h-66.042c-3.886-24.405-25.081-43.116-50.562-43.116
				H61.979c-25.482,0-46.676,18.711-50.562,43.116H8.084c-4.466,0-8.084,3.62-8.084,8.084C0,131.117,3.619,134.737,8.084,134.737z"
				/>
			<path d="M199.411,180.547c0-4.465-3.618-8.084-8.084-8.084H18.863c-4.466,0-8.084,3.62-8.084,8.084
				c0,4.465,3.618,8.084,8.084,8.084h172.463C195.792,188.632,199.411,185.012,199.411,180.547z"/>
			<path d="M264.084,223.663c0-4.465-3.619-8.084-8.084-8.084H105.095c-4.466,0-8.084,3.62-8.084,8.084
				c0,4.465,3.618,8.084,8.084,8.084H256C260.466,231.747,264.084,228.128,264.084,223.663z"/>
			<path d="M56.589,278.097h134.737c4.466,0,8.084-3.62,8.084-8.084s-3.618-8.084-8.084-8.084H56.589
				c-4.466,0-8.084,3.62-8.084,8.084S52.124,278.097,56.589,278.097z"/>
			<path d="M487.747,463.495h-53.895c-13.372,0-24.253,10.879-24.253,24.253c0,13.373,10.88,24.253,24.253,24.253h53.895
				C501.12,512,512,501.121,512,487.747C512,474.374,501.12,463.495,487.747,463.495z M487.747,495.832h-53.895
				c-4.458,0-8.084-3.626-8.084-8.084c0-4.458,3.626-8.084,8.084-8.084h53.895c4.458,0,8.084,3.626,8.084,8.084
				C495.832,492.206,492.206,495.832,487.747,495.832z"/>
			<path d="M412.273,428.742l-3.882-19.415l16.744-14.004c3.903-3.264,5.46-8.244,4.06-12.996
				c-1.456-4.948-5.885-8.578-11.286-9.252l-24.23-3.021L383.067,351.6c-2.369-4.117-6.938-6.675-11.925-6.674
				c-4.986,0.001-9.556,2.559-11.924,6.676l-10.614,18.452l-24.23,3.021c-5.4,0.673-9.829,4.304-11.286,9.252
				c-1.398,4.752,0.158,9.732,4.062,12.995l16.743,14.004l-3.882,19.414c-0.905,4.534,0.84,9.188,4.555,12.146
				c4.082,3.248,9.831,3.943,14.652,1.768l21.923-9.889l21.923,9.89c1.866,0.842,3.871,1.254,5.866,1.254
				c3.155,0,6.284-1.032,8.784-3.021C411.431,437.929,413.176,433.275,412.273,428.742z M396.399,398.279
				c-3.541,2.962-5.195,7.54-4.317,11.948l3.13,15.659l-18.194-8.207c-3.735-1.685-8.017-1.685-11.752,0l-18.195,8.207l3.13-15.658
				c0.882-4.408-0.774-8.987-4.318-11.951l-12.06-10.086l17.924-2.234c4.289-0.535,8.078-2.988,10.135-6.564l9.257-16.093
				l9.257,16.094c2.058,3.575,5.846,6.029,10.135,6.563l17.925,2.234L396.399,398.279z"/>
			<path d="M503.916,301.811h-36.217c-26.692,0-50.456,17.924-57.787,43.589c-0.793,2.776-1.863,5.479-3.175,8.035
				c-2.042,3.971-0.475,8.844,3.495,10.886c1.184,0.608,2.446,0.896,3.69,0.896c2.933,0,5.763-1.602,7.197-4.39
				c1.796-3.496,3.256-7.191,4.341-10.983c5.359-18.761,22.73-31.864,42.24-31.864h36.217c4.466,0,8.084-3.62,8.084-8.084
				C512,305.43,508.382,301.811,503.916,301.811z"/>
			<path d="M503.916,355.705h-21.558c-4.466,0-8.084,3.62-8.084,8.084c0,4.465,3.618,8.084,8.084,8.084h21.558
				c4.466,0,8.084-3.62,8.084-8.084C512,359.325,508.382,355.705,503.916,355.705z"/>
			<path d="M299.116,452.716h-64.674c-4.466,0-8.084,3.62-8.084,8.084s3.618,8.084,8.084,8.084h64.674
				c4.466,0,8.084-3.62,8.084-8.084S303.582,452.716,299.116,452.716z"/>
			<path d="M177.853,444.632c0-13.373-10.88-24.253-24.253-24.253h-10.779c-13.372,0-24.253,10.879-24.253,24.253
				c0,13.373,10.88,24.253,24.253,24.253H153.6C166.972,468.884,177.853,458.005,177.853,444.632z M134.737,444.632
				c0-4.458,3.626-8.084,8.084-8.084H153.6c4.458,0,8.084,3.626,8.084,8.084c0,4.458-3.626,8.084-8.084,8.084h-10.779
				C138.363,452.716,134.737,449.09,134.737,444.632z"/>
			<path d="M256,495.832h-97.01c-4.466,0-8.084,3.62-8.084,8.084c0,4.465,3.618,8.084,8.084,8.084H256
				c4.466,0,8.084-3.62,8.084-8.084C264.084,499.451,260.466,495.832,256,495.832z"/>
			<path d="M105.095,398.821H51.2c-4.466,0-8.084,3.62-8.084,8.084c0,4.465,3.619,8.084,8.084,8.084h53.895
				c4.466,0,8.084-3.62,8.084-8.084C113.179,402.441,109.56,398.821,105.095,398.821z"/>
			<path d="M45.811,463.495H24.253C10.88,463.495,0,474.374,0,487.747C0,501.121,10.88,512,24.253,512h21.558
				c13.372,0,24.253-10.879,24.253-24.253C70.063,474.374,59.183,463.495,45.811,463.495z M45.811,495.832H24.253
				c-4.458,0-8.084-3.626-8.084-8.084c0-4.458,3.626-8.084,8.084-8.084h21.558c4.458,0,8.084,3.626,8.084,8.084
				C53.895,492.206,50.269,495.832,45.811,495.832z"/>
			<path d="M8.084,371.874h21.558c4.466,0,8.084-3.62,8.084-8.084c0-4.465-3.618-8.084-8.084-8.084H8.084
				c-4.466,0-8.084,3.62-8.084,8.084C0,368.254,3.619,371.874,8.084,371.874z"/>
		</g>
	</g>
</g>
<g>
</g>
<g>
</g>
<g>
</g>
<g>
</g>
<g>
</g>
<g>
</g>
<g>
</g>
<g>
</g>
<g>
</g>
<g>
</g>
<g>
</g>
<g>
</g>
<g>
</g>
<g>
</g>
<g>
</g>
</svg>
